<svg width="408" height="466" viewBox="0 0 408 466" fill="none" xmlns="http://www.w3.org/2000/svg">
<path d="M84.5 421L85.8082 425.166L89.3209 422.872L87.8125 426.96L91.8861 427.611L88.2669 429.708L90.9952 433L86.9587 432.125L87.0652 436.518L84.5 433.08L81.9348 436.518L82.0413 432.125L78.0048 433L80.7331 429.708L77.1139 427.611L81.1875 426.96L79.6791 422.872L83.1918 425.166L84.5 421Z" fill="#D9D9D9"/>
<rect x="146" y="129.612" width="45.8665" height="6.09366" fill="#FF2D55"/>
<path d="M84 433.791C84 456.602 91.5 463.509 104 463.509H225C247.938 463.509 248.438 443.954 247.938 433.791V152.262C247.938 136.103 237.942 131.354 232.944 131H107.491C91.0973 131 87.3321 145.175 87.4987 152.262C86.3325 236.601 84 410.981 84 433.791Z" stroke="#FF2D55" stroke-width="4"/>
<path d="M146 412L147.395 416.426L151.142 413.989L149.533 418.332L153.878 419.024L150.018 421.253L152.928 424.75L148.623 423.821L148.736 428.487L146 424.835L143.264 428.487L143.377 423.821L139.072 424.75L141.982 421.253L138.122 419.024L142.467 418.332L140.858 413.989L144.605 416.426L146 412Z" fill="#FF2D55"/>
<path d="M157.006 311C175.406 302.6 188.673 318.5 193.006 327.5C195.506 330.833 202.606 337.3 211.006 336.5C219.406 335.7 220.506 323.5 220.006 317.5C218.673 296 208.606 248.8 179.006 232C142.006 211 110.506 265 111.006 294C111.506 323 134.006 321.5 157.006 311Z" fill="#E3E3E3"/>
<rect x="81" y="208" width="7" height="12" fill="#FF2D55"/>
<rect x="81" y="227" width="4" height="19" fill="#FF2D55"/>
<rect x="81" y="256" width="5" height="24" fill="#FF2D55"/>
<path d="M266 458.5L264 439L272.5 436.5V458.5H266Z" fill="#D8B8A2"/>
<path d="M360 366.5L342 373L346.5 381L363 370L360 366.5Z" fill="#D8B8A2"/>
<line x1="34" y1="465.5" x2="384" y2="465.5" stroke="#C6C6C6"/>
<path d="M65 72L67.7909 80.8529L75.2846 75.9772L72.0668 84.665L80.7569 86.048L73.036 90.5055L78.8564 97.5L70.2451 95.6416L70.4723 104.975L65 97.67L59.5277 104.975L59.7549 95.6416L51.1436 97.5L56.964 90.5055L49.2431 86.048L57.9332 84.665L54.7154 75.9772L62.2091 80.8529L65 72Z" fill="#D9D9D9"/>
<path d="M380 197L382.791 205.853L390.285 200.977L387.067 209.665L395.757 211.048L388.036 215.506L393.856 222.5L385.245 220.642L385.472 229.975L380 222.67L374.528 229.975L374.755 220.642L366.144 222.5L371.964 215.506L364.243 211.048L372.933 209.665L369.715 200.977L377.209 205.853L380 197Z" fill="#FF2D55"/>
<path d="M298.743 -2.97477L301.534 5.87809L309.028 1.00247L305.81 9.69023L314.5 11.0732L306.779 15.5308L312.599 22.5252L303.988 20.6668L304.215 30L298.743 22.6952L293.271 30L293.498 20.6668L284.887 22.5252L290.707 15.5308L282.986 11.0732L291.676 9.69023L288.458 1.00247L295.952 5.87809L298.743 -2.97477Z" fill="#D9D9D9"/>
<path d="M334.5 375L335.808 379.166L339.321 376.872L337.813 380.96L341.886 381.611L338.267 383.708L340.995 387L336.959 386.125L337.065 390.518L334.5 387.08L331.935 390.518L332.041 386.125L328.005 387L330.733 383.708L327.114 381.611L331.187 380.96L329.679 376.872L333.192 379.166L334.5 375Z" fill="#D9D9D9"/>
<path d="M114.591 139.915C115.315 137.535 118.685 137.535 119.409 139.915V139.915C119.653 140.718 120.282 141.347 121.085 141.591V141.591C123.465 142.315 123.465 145.685 121.085 146.409V146.409C120.282 146.653 119.653 147.282 119.409 148.085V148.085C118.685 150.465 115.315 150.465 114.591 148.085V148.085C114.347 147.282 113.718 146.653 112.915 146.409V146.409C110.535 145.685 110.535 142.315 112.915 141.591V141.591C113.718 141.347 114.347 140.718 114.591 139.915V139.915Z" fill="#D9D9D9"/>
<path d="M392.061 116.069C393.023 115.776 393.776 115.023 394.069 114.061C394.65 112.153 397.35 112.153 397.931 114.061C398.224 115.023 398.977 115.776 399.939 116.069C401.847 116.65 401.847 119.35 399.939 119.931C398.977 120.224 398.224 120.977 397.931 121.939C397.35 123.847 394.65 123.847 394.069 121.939C393.776 120.977 393.023 120.224 392.061 119.931C390.153 119.35 390.153 116.65 392.061 116.069Z" stroke="black"/>
<path d="M250.218 89.7941L251.8 93.4937C252.37 94.8258 253.55 95.7993 254.966 96.106C258.616 96.8965 258.616 102.103 254.966 102.894C253.55 103.201 252.37 104.174 251.8 105.506L250.218 109.206C249.007 112.037 244.993 112.037 243.782 109.206L242.2 105.506C241.63 104.174 240.45 103.201 239.034 102.894C235.384 102.103 235.384 96.8965 239.034 96.106C240.45 95.7993 241.63 94.8258 242.2 93.4937L243.782 89.7941C244.993 86.9628 249.007 86.9628 250.218 89.7941Z" stroke="#D9D9D9"/>
<path d="M18.0607 261.069C19.0231 260.776 19.7763 260.023 20.0692 259.061C20.6498 257.153 23.3502 257.153 23.9308 259.061C24.2237 260.023 24.9769 260.776 25.9393 261.069C27.8467 261.65 27.8467 264.35 25.9393 264.931C24.9769 265.224 24.2237 265.977 23.9308 266.939C23.3502 268.847 20.6498 268.847 20.0692 266.939C19.7763 265.977 19.0231 265.224 18.0607 264.931C16.1533 264.35 16.1533 261.65 18.0607 261.069Z" stroke="black"/>
<path d="M52 -7L54.7909 1.85287L62.2846 -3.02276L59.0668 5.665L67.7569 7.04798L60.036 11.5055L65.8564 18.5L57.2451 16.6416L57.4723 25.9748L52 18.67L46.5277 25.9748L46.7549 16.6416L38.1436 18.5L43.964 11.5055L36.2431 7.04798L44.9332 5.665L41.7154 -3.02276L49.2091 1.85287L52 -7Z" fill="#FF2D55"/>
<path d="M2.06356 172.272L8.29103 168.22L5.59789 175.491L5.38617 176.063L5.98818 176.159L13.2855 177.32L6.78603 181.073L6.27212 181.369L6.65169 181.825L11.5447 187.705L4.35062 186.153L3.72984 186.019L3.7453 186.654L3.9344 194.423L-0.599836 188.37L-1 187.836L-1.40016 188.37L-5.9344 194.423L-5.74529 186.654L-5.72984 186.019L-6.35062 186.153L-13.5447 187.705L-8.65169 181.825L-8.27212 181.369L-8.78604 181.073L-15.2855 177.32L-7.98818 176.159L-7.38617 176.063L-7.59789 175.491L-10.291 168.22L-4.06356 172.272L-3.5119 172.631L-3.31402 172.003L-1 164.663L1.31402 172.003L1.5119 172.631L2.06356 172.272Z" stroke="#FF2D55"/>
<path d="M283.5 221C271.1 215.4 278.333 205 283.5 200.5C287.555 196 307 200.5 308 205C308.8 208.6 302.667 227.167 299.5 236H291C293.667 233.333 295.9 226.6 283.5 221Z" fill="#D8B8A2"/>
<path d="M296 207.5C290.167 205.167 278.8 198.6 280 191C280 192.918 282.2 192.802 291 191C299.8 189.198 303.667 195.249 304.5 198.5C307.167 197.333 313.4 195.7 317 198.5C320.6 201.3 312.5 215 308 221.5C304 222.333 296.7 222.6 299.5 217C302.3 211.4 298.333 208.333 296 207.5Z" fill="black"/>
<path d="M271.5 344C281 299 280 313.5 292.5 313.5C305 313.5 315.157 314.667 316 318.5L328.75 378.25L350.5 368L354.5 378.25L323 402.5L294.5 342L276 394.5L274 447.5L263.5 446C264.167 431.833 262.485 386.705 271.5 344Z" fill="black"/>
<path d="M264 283C265.6 277.4 271 264.667 273.5 259L285 264C284.833 266.667 282.3 275.2 273.5 288C264.7 300.8 252.167 310.667 247 314V304C252 299.333 262.4 288.6 264 283Z" fill="#D8B8A2"/>
<path d="M277 319V256.5L314 253V319H277Z" fill="#9F58DA"/>
<path d="M301 238L292 238C289.833 237 285.8 242.9 281 242.5C276.2 242.1 272.833 248.833 273 251.5L271 263.5H285.5L306.5 259L314 267.5L323 259L318 250.5C317.667 248.167 315.7 243.9 310.5 245.5C305.3 247.1 302 241.167 301 238Z" fill="#9F58DA"/>
<path d="M322 259L311 265.5C314 276.5 311 322 314.5 321C318 320 322 290.5 322 285V259Z" fill="#D8B8A2"/>
<path d="M319 319C319 322.314 317.209 325 315 325C312.791 325 311 322.314 311 319C311 315.686 312.791 313 315 313C317.209 313 319 315.686 319 319Z" fill="#D8B8A2"/>
<path d="M275 457.5C273.5 454.5 264 457.5 264 457.5L255.5 460.5V465H265.25H275C275 465 276.5 460.5 275 457.5Z" fill="black"/>
<path d="M362 372.5C362 372.5 358 372.5 356.5 367.5C355 362.5 362 360.5 362 360.5L370.5 366.5L379 372.5L376 376.5L362 372.5Z" fill="black"/>
<rect x="109" y="185" width="112" height="6" fill="#212121"/>
<rect x="109" y="199" width="112" height="6" fill="#212121"/>
<rect x="109" y="232" width="112" height="6" fill="#212121"/>
<rect x="109" y="212" width="78" height="6" fill="#212121"/>
<rect x="109" y="246" width="7" height="6" fill="#212121"/>
<circle cx="165" cy="437" r="13" fill="#FF2D55"/>
<path d="M179.5 388L185.995 397.75H173.005L179.5 388Z" fill="#D9D9D9"/>
<path d="M115.025 330.933L125.304 325.313L124.171 338.254L115.025 330.933Z" fill="#D9D9D9"/>
</svg>
