<svg width="409" height="456" viewBox="0 0 409 456" fill="none" xmlns="http://www.w3.org/2000/svg">
<path d="M85.5 411L86.8082 415.166L90.3209 412.872L88.8125 416.96L92.8861 417.611L89.2669 419.708L91.9952 423L87.9587 422.125L88.0652 426.518L85.5 423.08L82.9348 426.518L83.0413 422.125L79.0048 423L81.7331 419.708L78.1139 417.611L82.1875 416.96L80.6791 412.872L84.1918 415.166L85.5 411Z" fill="#D9D9D9"/>
<rect x="87" y="142" width="160.286" height="312" rx="26" fill="white" stroke="#FF2D55" stroke-width="4"/>
<rect x="145.043" y="142.612" width="45.8665" height="6.09366" fill="#FF2D55"/>
<path d="M112.5 439.5L87.5 411.5V431.5L91.5 443.5L107.5 456L233 451.5H164.5L112.5 439.5Z" fill="#FF2D55"/>
<path d="M152.5 325C170.9 316.6 184.167 332.5 188.5 341.5C191 344.833 198.1 351.3 206.5 350.5C214.9 349.7 216 337.5 215.5 331.5C214.167 310 204.1 262.8 174.5 246C137.5 225 106 279 106.5 308C107 337 129.5 335.5 152.5 325Z" fill="#E3E3E3"/>
<rect x="82" y="198" width="7" height="12" fill="#FF2D55"/>
<rect x="82" y="217" width="4" height="19" fill="#FF2D55"/>
<rect x="82" y="246" width="5" height="24" fill="#FF2D55"/>
<rect x="112.5" y="184.5" width="112" height="104" rx="9.5" stroke="black"/>
<path d="M214.5 221C207.3 207.8 172.167 190.833 155.5 184H203C224.2 184 225.833 189.667 224 192.5V248.5C223.833 244.833 221.7 234.2 214.5 221Z" fill="black"/>
<line x1="148" y1="213.5" x2="190" y2="213.5" stroke="black"/>
<line x1="133" y1="221.5" x2="210" y2="221.5" stroke="black"/>
<line x1="140" y1="231.5" x2="182" y2="231.5" stroke="black"/>
<line x1="125" y1="276.5" x2="160" y2="276.5" stroke="black"/>
<path d="M267 448.5L265 429L273.5 426.5V448.5H267Z" fill="#D8B8A2"/>
<path d="M361 356.5L343 363L347.5 371L364 360L361 356.5Z" fill="#D8B8A2"/>
<line x1="35" y1="455.5" x2="385" y2="455.5" stroke="#C6C6C6"/>
<path d="M66 62L68.7909 70.8529L76.2846 65.9772L73.0668 74.665L81.7569 76.048L74.036 80.5055L79.8564 87.5L71.2451 85.6416L71.4723 94.9748L66 87.67L60.5277 94.9748L60.7549 85.6416L52.1436 87.5L57.964 80.5055L50.2431 76.048L58.9332 74.665L55.7154 65.9772L63.2091 70.8529L66 62Z" fill="#D9D9D9"/>
<path d="M381 187L383.791 195.853L391.285 190.977L388.067 199.665L396.757 201.048L389.036 205.506L394.856 212.5L386.245 210.642L386.472 219.975L381 212.67L375.528 219.975L375.755 210.642L367.144 212.5L372.964 205.506L365.243 201.048L373.933 199.665L370.715 190.977L378.209 195.853L381 187Z" fill="#FF2D55"/>
<path d="M299.743 -12.9748L302.534 -4.12191L310.028 -8.99753L306.81 -0.309773L315.5 1.07321L307.779 5.53076L313.599 12.5252L304.988 10.6668L305.215 20L299.743 12.6952L294.271 20L294.498 10.6668L285.887 12.5252L291.707 5.53076L283.986 1.07321L292.676 -0.309773L289.458 -8.99753L296.952 -4.12191L299.743 -12.9748Z" fill="#D9D9D9"/>
<path d="M335.5 365L336.808 369.166L340.321 366.872L338.813 370.96L342.886 371.611L339.267 373.708L341.995 377L337.959 376.125L338.065 380.518L335.5 377.08L332.935 380.518L333.041 376.125L329.005 377L331.733 373.708L328.114 371.611L332.187 370.96L330.679 366.872L334.192 369.166L335.5 365Z" fill="#D9D9D9"/>
<path d="M115.591 129.915C116.315 127.535 119.685 127.535 120.409 129.915V129.915C120.653 130.718 121.282 131.347 122.085 131.591V131.591C124.465 132.315 124.465 135.685 122.085 136.409V136.409C121.282 136.653 120.653 137.282 120.409 138.085V138.085C119.685 140.465 116.315 140.465 115.591 138.085V138.085C115.347 137.282 114.718 136.653 113.915 136.409V136.409C111.535 135.685 111.535 132.315 113.915 131.591V131.591C114.718 131.347 115.347 130.718 115.591 129.915V129.915Z" fill="#D9D9D9"/>
<path d="M393.061 106.069C394.023 105.776 394.776 105.023 395.069 104.061C395.65 102.153 398.35 102.153 398.931 104.061C399.224 105.023 399.977 105.776 400.939 106.069C402.847 106.65 402.847 109.35 400.939 109.931C399.977 110.224 399.224 110.977 398.931 111.939C398.35 113.847 395.65 113.847 395.069 111.939C394.776 110.977 394.023 110.224 393.061 109.931C391.153 109.35 391.153 106.65 393.061 106.069Z" stroke="black"/>
<path d="M251.218 79.7941L252.8 83.4937C253.37 84.8258 254.55 85.7993 255.966 86.106C259.616 86.8965 259.616 92.1035 255.966 92.894C254.55 93.2007 253.37 94.1742 252.8 95.5063L251.218 99.2059C250.007 102.037 245.993 102.037 244.782 99.2059L243.2 95.5063C242.63 94.1742 241.45 93.2007 240.034 92.894C236.384 92.1035 236.384 86.8965 240.034 86.106C241.45 85.7993 242.63 84.8258 243.2 83.4937L244.782 79.7941C245.993 76.9628 250.007 76.9628 251.218 79.7941Z" stroke="#D9D9D9"/>
<path d="M19.0607 251.069C20.0231 250.776 20.7763 250.023 21.0692 249.061C21.6498 247.153 24.3502 247.153 24.9308 249.061C25.2237 250.023 25.9769 250.776 26.9393 251.069C28.8467 251.65 28.8467 254.35 26.9393 254.931C25.9769 255.224 25.2237 255.977 24.9308 256.939C24.3502 258.847 21.6498 258.847 21.0692 256.939C20.7763 255.977 20.0231 255.224 19.0607 254.931C17.1533 254.35 17.1533 251.65 19.0607 251.069Z" stroke="black"/>
<path d="M53 -17L55.7909 -8.14713L63.2846 -13.0228L60.0668 -4.335L68.7569 -2.95202L61.036 1.50553L66.8564 8.5L58.2451 6.64161L58.4723 15.9748L53 8.67L47.5277 15.9748L47.7549 6.64161L39.1436 8.5L44.964 1.50553L37.2431 -2.95202L45.9332 -4.335L42.7154 -13.0228L50.2091 -8.14713L53 -17Z" fill="#FF2D55"/>
<path d="M3.06356 162.272L9.29103 158.22L6.59789 165.491L6.38617 166.063L6.98818 166.159L14.2855 167.32L7.78603 171.073L7.27212 171.369L7.65169 171.825L12.5447 177.705L5.35062 176.153L4.72984 176.019L4.7453 176.654L4.9344 184.423L0.400164 178.37L0 177.836L-0.400165 178.37L-4.9344 184.423L-4.74529 176.654L-4.72984 176.019L-5.35062 176.153L-12.5447 177.705L-7.65169 171.825L-7.27212 171.369L-7.78604 171.073L-14.2855 167.32L-6.98818 166.159L-6.38617 166.063L-6.59789 165.491L-9.29103 158.22L-3.06356 162.272L-2.5119 162.631L-2.31402 162.003L0 154.663L2.31402 162.003L2.5119 162.631L3.06356 162.272Z" stroke="#FF2D55"/>
<path d="M284.5 211C272.1 205.4 279.333 195 284.5 190.5C288.555 186 308 190.5 309 195C309.8 198.6 303.667 217.167 300.5 226H292C294.667 223.333 296.9 216.6 284.5 211Z" fill="#D8B8A2"/>
<path d="M297 197.5C291.167 195.167 279.8 188.6 281 181C281 182.918 283.2 182.802 292 181C300.8 179.198 304.667 185.249 305.5 188.5C308.167 187.333 314.4 185.7 318 188.5C321.6 191.3 313.5 205 309 211.5C305 212.333 297.7 212.6 300.5 207C303.3 201.4 299.333 198.333 297 197.5Z" fill="black"/>
<path d="M272.5 334C282 289 281 303.5 293.5 303.5C306 303.5 316.157 304.667 317 308.5L329.75 368.25L351.5 358L355.5 368.25L324 392.5L295.5 332L277 384.5L275 437.5L264.5 436C265.167 421.833 263.485 376.705 272.5 334Z" fill="black"/>
<path d="M265 273C266.6 267.4 272 254.667 274.5 249L286 254C285.833 256.667 283.3 265.2 274.5 278C265.7 290.8 253.167 300.667 248 304V294C253 289.333 263.4 278.6 265 273Z" fill="#D8B8A2"/>
<path d="M278 309V246.5L315 243V309H278Z" fill="#9F58DA"/>
<path d="M302 228L293 228C290.833 227 286.8 232.9 282 232.5C277.2 232.1 273.833 238.833 274 241.5L272 253.5H286.5L307.5 249L315 257.5L324 249L319 240.5C318.667 238.167 316.7 233.9 311.5 235.5C306.3 237.1 303 231.167 302 228Z" fill="#9F58DA"/>
<path d="M323 249L312 255.5C315 266.5 312 312 315.5 311C319 310 323 280.5 323 275V249Z" fill="#D8B8A2"/>
<path d="M320 309C320 312.314 318.209 315 316 315C313.791 315 312 312.314 312 309C312 305.686 313.791 303 316 303C318.209 303 320 305.686 320 309Z" fill="#D8B8A2"/>
<path d="M276 447.5C274.5 444.5 265 447.5 265 447.5L256.5 450.5V455H266.25H276C276 455 277.5 450.5 276 447.5Z" fill="black"/>
<path d="M363 362.5C363 362.5 359 362.5 357.5 357.5C356 352.5 363 350.5 363 350.5L371.5 356.5L380 362.5L377 366.5L363 362.5Z" fill="black"/>
</svg>
